<?xml version="1.0" encoding="UTF-8" ?>
<!DOCTYPE svg PUBLIC "-//W3C//DTD SVG 1.1//EN" "http://www.w3.org/Graphics/SVG/1.1/DTD/svg11.dtd">
<svg width="497pt" height="497pt" viewBox="0 0 497 497" version="1.1" xmlns="http://www.w3.org/2000/svg">
<g id="#ffffffff">
<path fill="#ffffff" opacity="1.00" d=" M 246.31 0.00 L 250.36 0.00 C 258.23 0.60 265.86 3.98 271.37 9.66 C 343.20 81.50 415.04 153.32 486.86 225.16 C 496.09 234.24 498.85 249.06 493.59 260.88 C 490.78 268.05 484.58 272.94 479.39 278.33 C 410.04 347.67 340.70 417.02 271.35 486.36 C 267.93 489.85 263.70 492.50 259.12 494.15 C 247.18 498.53 232.93 495.02 224.36 485.64 C 215.72 476.97 207.04 468.34 198.41 459.66 C 198.43 435.64 198.39 411.62 198.42 387.60 C 221.42 387.58 244.43 387.64 267.43 387.57 C 291.18 386.85 314.87 380.82 335.84 369.59 C 358.39 357.54 377.17 338.41 388.14 315.26 C 402.25 285.88 405.04 251.80 398.97 220.00 C 393.44 190.97 377.99 163.58 354.54 145.32 C 330.09 126.00 298.94 116.18 268.01 115.04 C 218.59 114.94 169.17 115.04 119.74 114.99 C 154.28 80.45 188.83 45.92 223.36 11.36 C 229.20 4.81 237.49 0.49 246.31 0.00 Z" />
<path fill="#ffffff" opacity="1.00" d=" M 37.39 197.15 C 111.94 197.11 186.50 197.15 261.05 197.13 C 273.09 196.84 285.27 199.39 296.03 204.82 C 306.22 209.72 313.96 219.08 316.92 229.98 C 320.83 244.35 320.77 259.94 316.27 274.17 C 312.93 284.67 304.91 293.29 294.93 297.84 C 284.38 302.87 272.61 305.28 260.93 305.00 C 240.09 304.98 219.24 305.04 198.39 304.97 C 198.43 279.58 198.41 254.19 198.41 228.80 C 170.92 228.80 143.43 228.80 115.94 228.80 C 115.94 278.17 115.94 327.53 115.94 376.89 C 80.31 341.26 44.65 305.65 9.05 269.98 C -2.29 258.41 -2.61 238.27 8.33 226.34 C 17.90 216.50 27.74 206.92 37.39 197.15 Z" />
</g>
</svg>
